<?xml version="1.0" standalone="no"?>
<!DOCTYPE svg PUBLIC "-//W3C//DTD SVG 20010904//EN"
 "http://www.w3.org/TR/2001/REC-SVG-20010904/DTD/svg10.dtd">
<svg version="1.0" xmlns="http://www.w3.org/2000/svg"
 width="503.000000pt" height="503.000000pt" viewBox="0 0 503.000000 503.000000"
 preserveAspectRatio="xMidYMid meet">
<metadata>
Created by potrace 1.14, written by Peter Selinger 2001-2017
</metadata>
<g transform="translate(0.000000,503.000000) scale(0.100000,-0.100000)"
fill="#000000" stroke="none">
<path d="M3090 4944 c0 -8 5 -12 10 -9 6 3 10 10 10 16 0 5 -4 9 -10 9 -5 0
-10 -7 -10 -16z"/>
<path d="M1874 4896 c-172 -45 -394 -130 -500 -192 -23 -14 -54 -41 -69 -60
-17 -22 -33 -33 -42 -30 -21 8 -86 -22 -164 -77 -81 -57 -119 -94 -119 -117 0
-10 -11 -25 -25 -34 -21 -14 -23 -19 -13 -36 11 -16 8 -23 -17 -49 -17 -17
-36 -31 -43 -31 -19 0 -70 -26 -145 -75 -36 -23 -47 -36 -47 -56 0 -14 -14
-45 -31 -68 -17 -24 -39 -63 -50 -88 -15 -35 -23 -43 -37 -39 -20 7 -68 -40
-90 -88 -7 -15 -26 -33 -43 -39 -24 -9 -43 -33 -85 -108 -142 -254 -238 -529
-184 -529 7 0 8 -40 4 -112 -5 -84 -13 -129 -30 -174 -13 -33 -24 -70 -24 -81
0 -28 -10 -53 -21 -53 -5 0 -9 22 -9 49 0 58 -17 77 -24 29 -6 -41 -15 -140
-22 -238 -5 -89 14 -403 27 -438 8 -20 12 -22 24 -12 8 7 15 19 15 27 0 8 7
13 18 11 13 -3 16 -12 14 -47 -1 -24 2 -49 9 -57 8 -10 6 -21 -11 -44 -19 -27
-21 -38 -14 -113 14 -162 168 -534 310 -748 44 -67 117 -128 152 -129 18 0 72
-39 72 -51 0 -6 -7 -17 -15 -25 -8 -9 -15 -21 -15 -28 0 -19 39 -66 54 -66 7
0 22 -11 35 -24 12 -12 41 -29 64 -36 23 -7 48 -20 54 -29 7 -8 34 -26 60 -40
46 -25 48 -28 53 -76 4 -43 9 -52 35 -66 27 -14 51 -32 119 -94 12 -11 35 -27
50 -35 16 -8 40 -29 54 -47 21 -29 30 -33 70 -33 41 0 50 -4 87 -45 27 -29 67
-56 111 -76 38 -17 81 -37 96 -45 58 -31 141 -54 154 -43 10 8 19 5 35 -10 12
-11 36 -23 53 -27 17 -3 37 -11 45 -17 8 -7 60 -12 129 -12 111 0 116 1 121
22 15 57 118 87 190 56 23 -10 41 -21 41 -25 0 -13 42 -9 87 8 26 10 43 23 43
33 0 12 10 16 43 17 32 0 62 12 128 51 133 80 185 125 184 159 0 25 4 29 37
35 46 7 64 23 117 100 36 52 41 67 42 117 1 46 6 62 27 84 13 15 26 41 27 58
2 20 15 44 34 64 17 18 29 35 25 38 -8 9 30 80 56 103 33 30 40 48 56 153 25
159 4 381 -50 540 -33 96 -105 237 -165 325 -101 146 -353 367 -418 367 -31 0
-104 33 -170 78 -32 21 -98 65 -148 98 -98 64 -263 217 -330 304 -116 153
-235 472 -252 673 -3 33 -10 57 -16 57 -30 1 -57 39 -57 79 0 35 7 49 41 86
31 33 45 60 55 101 7 31 10 62 7 70 -3 8 1 24 9 37 8 12 25 51 37 87 54 150
145 306 254 433 44 52 48 59 33 70 -23 17 -34 67 -22 99 7 20 7 41 -2 73 -7
25 -12 58 -12 74 0 16 -7 34 -15 41 -8 7 -12 16 -9 21 9 15 -47 9 -142 -15z
m-139 -1536 c3 -6 -1 -13 -10 -16 -19 -8 -30 0 -20 15 8 14 22 14 30 1z
m-1618 -724 c-2 -37 -8 -70 -14 -74 -10 -7 -21 -61 -26 -129 -1 -17 -5 -35
-10 -39 -14 -14 -5 150 10 171 7 11 13 47 13 86 0 36 3 69 7 73 14 14 22 -23
20 -88z m1 -360 c6 -47 -12 -34 -46 36 -2 5 7 4 20 -1 15 -5 24 -18 26 -35z
m2006 -667 c32 -10 154 -1 172 12 20 16 37 -20 42 -89 2 -43 12 -83 27 -112
37 -73 45 -108 45 -206 0 -51 4 -96 10 -99 17 -10 11 -78 -9 -112 -16 -25 -30
-33 -72 -42 -28 -6 -70 -25 -93 -42 -43 -31 -149 -69 -196 -69 -15 0 -38 -8
-51 -19 -54 -42 -105 -37 -131 13 -10 20 -9 20 14 -1 28 -26 56 -29 84 -9 21
16 23 15 -61 37 -59 15 -90 36 -162 108 -50 52 -93 134 -93 179 0 10 -13 29
-30 44 -36 32 -38 52 -6 73 l24 16 -19 36 c-20 39 -19 53 12 121 19 42 37 55
90 66 17 4 29 14 33 30 3 13 24 38 46 54 l40 29 128 -4 c70 -2 140 -9 156 -14z"/>
<path d="M1804 1565 c-10 -8 -14 -15 -8 -15 6 0 17 7 24 15 16 19 9 19 -16 0z"/>
<path d="M1939 1565 c-120 -30 -211 -124 -243 -249 l-16 -60 31 -54 c27 -47
30 -61 24 -102 -6 -45 -4 -51 29 -88 43 -47 153 -107 214 -116 28 -4 51 -2 70
8 17 9 34 11 42 6 16 -10 49 5 68 31 15 22 114 89 130 89 17 0 60 70 68 107 5
23 0 41 -15 67 l-22 35 19 44 c19 43 19 46 2 78 -10 19 -26 51 -36 71 -19 38
-90 99 -136 117 -15 5 -43 7 -62 4 -21 -3 -42 -1 -49 6 -21 17 -68 19 -118 6z"/>
<path d="M2260 1545 c42 -35 60 -43 60 -26 0 26 -15 41 -40 41 -16 0 -32 5
-35 10 -3 6 -11 10 -17 10 -5 0 9 -16 32 -35z"/>
<path d="M1666 1474 c-9 -8 -16 -25 -16 -37 0 -12 -3 -39 -6 -59 -5 -25 -3
-38 5 -38 6 0 11 6 11 14 0 8 13 39 29 69 24 46 27 57 14 61 -20 8 -19 8 -37
-10z"/>
<path d="M2362 1250 c0 -14 2 -19 5 -12 2 6 2 18 0 25 -3 6 -5 1 -5 -13z"/>
<path d="M2376 1070 c-19 -47 -20 -60 -6 -60 6 0 10 9 10 20 0 11 7 20 15 20
10 0 15 10 15 30 0 42 -15 37 -34 -10z"/>
<path d="M3020 4909 c-128 -16 -140 -19 -156 -51 -14 -28 -19 -30 -54 -24 -34
5 -41 3 -65 -25 -14 -18 -35 -48 -45 -68 -37 -68 -56 -84 -95 -78 -19 3 -35 2
-35 -3 0 -5 -14 -7 -32 -3 -21 4 -35 2 -42 -8 -11 -14 -78 -41 -108 -44 -9 -1
-22 -6 -30 -12 -7 -6 -40 -10 -73 -9 -33 1 -66 -3 -74 -9 -11 -7 -13 -7 -8 2
4 6 3 14 -2 17 -5 4 -12 -7 -16 -22 -8 -38 -23 -58 -124 -161 -46 -47 -89 -98
-95 -112 -6 -14 -25 -38 -42 -52 -35 -30 -47 -65 -50 -152 -2 -76 -22 -155
-40 -162 -7 -3 -23 -21 -35 -40 -18 -29 -22 -55 -27 -162 -6 -165 1 -218 33
-233 14 -6 27 -19 30 -30 4 -10 17 -31 30 -46 39 -47 76 -175 78 -272 2 -74 6
-94 34 -150 18 -36 50 -84 72 -107 37 -40 42 -42 66 -31 23 10 29 8 59 -23 67
-69 102 -97 144 -118 29 -15 54 -39 76 -74 19 -29 42 -60 52 -69 21 -19 170
-88 189 -88 7 0 18 -7 26 -16 26 -31 107 -64 158 -64 55 0 75 -18 64 -58 -4
-17 4 -31 37 -59 23 -20 50 -53 60 -72 22 -45 129 -175 178 -218 31 -27 36
-38 38 -80 2 -66 18 -103 45 -103 18 0 20 -5 16 -26 -3 -16 3 -39 14 -59 11
-18 17 -40 13 -49 -3 -9 11 -51 34 -98 36 -73 41 -92 42 -158 2 -96 -32 -263
-63 -311 -9 -13 -23 -49 -31 -79 -37 -133 -97 -275 -149 -353 -10 -15 -16 -34
-13 -43 3 -8 -9 -34 -27 -58 -17 -23 -45 -62 -62 -86 -69 -99 -192 -222 -220
-219 -38 4 -105 -39 -105 -67 0 -25 -44 -44 -101 -44 -68 0 -116 -15 -130 -42
-8 -15 -17 -18 -35 -14 -14 4 -30 3 -36 0 -6 -4 -23 -8 -37 -9 -58 -3 -247
-39 -259 -49 -11 -8 -10 -11 5 -17 29 -12 63 -10 60 3 -3 17 49 24 123 16 180
-20 567 2 750 42 165 36 320 85 320 101 0 15 -27 10 -70 -12 -29 -15 -48 -19
-68 -14 -15 4 -67 10 -117 14 -97 6 -87 20 15 21 30 0 72 4 92 9 24 6 40 5 47
-2 9 -9 17 -8 31 1 11 6 34 12 52 12 25 0 36 6 43 23 8 17 17 21 41 19 48 -4
84 13 84 42 0 30 46 66 84 66 14 0 35 -9 46 -20 24 -24 34 -26 26 -5 -6 18 -2
19 22 4 14 -9 26 -8 53 6 65 33 127 77 147 104 11 16 51 43 89 61 102 50 299
227 454 410 77 90 199 271 199 294 0 11 7 34 15 50 8 15 15 34 15 41 0 7 7 16
15 19 9 3 22 21 30 40 8 19 19 37 25 41 5 3 10 28 10 54 0 106 15 147 79 212
52 53 63 72 85 143 28 88 56 219 77 361 18 118 18 552 1 655 -31 179 -54 265
-75 285 -56 52 -77 92 -77 147 0 55 -25 123 -53 147 -24 19 -22 45 3 38 14 -4
20 0 20 12 0 27 -28 59 -58 66 -15 3 -42 14 -59 25 -29 17 -31 23 -26 55 3 21
2 35 -5 35 -5 0 -26 24 -46 54 -33 49 -36 61 -36 124 0 69 -1 71 -56 148 -137
191 -292 347 -511 513 -130 98 -376 241 -415 241 -7 0 -30 11 -49 24 -20 14
-69 33 -110 42 -41 10 -77 23 -82 30 -10 16 -77 41 -157 58 -36 8 -72 16 -80
18 -8 3 -44 1 -80 -3z m-16 -708 c9 -10 37 -21 62 -25 24 -3 67 -15 95 -27 40
-18 52 -20 59 -9 4 7 13 9 19 5 9 -5 9 -10 1 -20 -14 -17 3 -29 33 -21 13 3
32 -2 46 -14 21 -15 23 -22 15 -41 -8 -18 -4 -35 24 -90 29 -60 33 -77 34
-151 0 -62 -5 -97 -21 -139 -51 -134 -124 -201 -273 -251 -51 -17 -100 -37
-109 -45 -8 -7 -28 -13 -43 -13 -32 0 -86 35 -86 55 0 7 -19 24 -42 38 -24 14
-62 45 -86 69 -36 38 -48 44 -77 42 -50 -4 -79 35 -70 92 4 32 1 50 -15 75
-28 47 -25 63 15 93 19 15 35 35 35 44 0 25 56 139 89 181 16 20 31 46 35 58
10 31 30 44 73 47 21 2 65 16 98 33 75 37 69 36 89 14z"/>
<path d="M2885 4110 c-27 -11 -74 -41 -104 -67 l-53 -46 6 -49 c8 -57 -4 -83
-40 -92 -26 -7 -27 -8 -21 -72 5 -63 19 -96 34 -81 4 4 1 13 -5 19 -7 7 -12
19 -12 27 0 11 4 11 19 -3 11 -10 17 -25 14 -34 -4 -10 -2 -13 5 -8 18 11 43
-7 32 -23 -7 -12 -11 -12 -24 2 -17 17 -46 13 -46 -7 1 -22 29 -49 45 -42 23
8 72 -20 80 -46 10 -30 35 -58 63 -69 12 -5 22 -17 22 -28 0 -22 25 -31 89
-31 32 0 51 7 73 25 44 37 107 68 152 74 l38 6 30 90 c17 50 36 97 43 105 21
25 24 57 11 113 -17 72 -38 108 -88 150 -24 20 -51 44 -61 53 -17 15 -20 14
-38 -4 -14 -16 -30 -20 -61 -19 -39 2 -45 6 -63 39 -17 33 -25 38 -55 37 -19
0 -57 -9 -85 -19z m-165 -270 c-11 -11 -20 -29 -20 -40 0 -11 -4 -20 -10 -20
-12 0 -13 40 -2 56 7 10 28 21 45 23 4 1 -2 -8 -13 -19z"/>
<path d="M3065 4120 c-10 -16 14 -40 41 -40 25 0 41 17 28 30 -16 15 -62 22
-69 10z"/>
<path d="M2601 3764 c0 -11 3 -14 6 -6 3 7 2 16 -1 19 -3 4 -6 -2 -5 -13z"/>
<path d="M3168 3519 c-14 -6 -29 -17 -32 -25 -4 -11 4 -9 34 6 55 28 54 39 -2
19z"/>
<path d="M950 4419 c0 -5 5 -7 10 -4 6 3 10 8 10 11 0 2 -4 4 -10 4 -5 0 -10
-5 -10 -11z"/>
<path d="M820 4310 c-8 -5 -12 -12 -9 -15 4 -3 12 1 19 10 14 17 11 19 -10 5z"/>
<path d="M590 4061 c-57 -72 -68 -91 -53 -91 14 0 27 14 62 65 19 28 41 54 48
58 14 9 18 37 5 37 -4 0 -32 -31 -62 -69z"/>
<path d="M4590 3813 c1 -46 36 -113 60 -113 24 0 30 -12 33 -65 2 -33 6 -40
30 -46 15 -4 27 -3 27 2 0 26 -127 249 -141 249 -5 0 -9 -12 -9 -27z"/>
<path d="M1702 3778 c-13 -13 -15 -37 -6 -62 11 -29 20 -17 23 29 2 49 1 51
-17 33z"/>
<path d="M1790 3460 c0 -36 35 -162 72 -254 27 -68 33 -76 40 -56 15 42 0 114
-43 197 -16 31 -29 64 -29 72 0 9 -9 27 -20 41 l-20 25 0 -25z"/>
<path d="M4850 3273 c0 -25 31 -103 41 -103 12 0 11 10 -7 63 -17 50 -34 70
-34 40z"/>
<path d="M106 3073 c-8 -37 -13 -69 -11 -71 9 -9 45 21 51 43 7 30 -3 95 -16
95 -4 0 -15 -30 -24 -67z"/>
<path d="M2122 2831 c-10 -6 8 -28 65 -80 95 -89 127 -109 92 -60 -26 37 -131
149 -139 149 -3 0 -11 -4 -18 -9z"/>
<path d="M2805 2371 c16 -11 31 -18 34 -15 7 7 -12 21 -39 29 -23 6 -23 5 5
-14z"/>
<path d="M4796 1649 c-21 -23 -31 -47 -41 -102 -19 -110 -7 -105 44 18 51 124
51 140 -3 84z"/>
<path d="M3285 1564 c14 -72 20 -208 13 -304 -6 -91 -4 -128 6 -79 2 13 12 59
21 103 25 113 23 210 -3 263 -30 59 -47 66 -37 17z"/>
<path d="M556 1015 c31 -41 35 -42 52 -15 10 17 10 20 -5 20 -10 0 -27 7 -37
15 -34 26 -38 16 -10 -20z"/>
<path d="M3195 1028 c-2 -7 -8 -29 -15 -49 -6 -20 -26 -54 -45 -77 -28 -32
-35 -49 -35 -81 0 -28 -5 -44 -15 -47 -17 -7 -21 -44 -5 -44 5 0 26 33 46 73
44 86 97 237 83 237 -5 0 -11 -6 -14 -12z"/>
<path d="M740 801 c0 -10 164 -163 181 -169 25 -9 3 27 -41 69 -27 25 -54 59
-60 74 -7 18 -15 25 -26 21 -8 -3 -24 -1 -35 4 -12 7 -19 7 -19 1z"/>
<path d="M2838 362 c-27 -26 -37 -41 -30 -46 7 -4 12 -1 12 6 0 7 16 22 35 32
19 11 35 25 35 33 0 20 -7 16 -52 -25z"/>
<path d="M1300 366 c0 -2 7 -6 15 -10 8 -3 15 -1 15 4 0 6 -7 10 -15 10 -8 0
-15 -2 -15 -4z"/>
<path d="M3560 294 c0 -17 14 -18 28 -1 8 10 6 13 -9 14 -10 1 -19 -5 -19 -13z"/>
<path d="M2645 230 c-3 -5 -2 -10 4 -10 5 0 13 5 16 10 3 6 2 10 -4 10 -5 0
-13 -4 -16 -10z"/>
<path d="M2204 180 c-12 -4 -24 -18 -27 -30 -6 -21 -4 -22 51 -15 78 10 91 18
61 39 -26 17 -52 20 -85 6z"/>
<path d="M2513 3 c20 -2 54 -2 75 0 20 2 3 4 -38 4 -41 0 -58 -2 -37 -4z"/>
</g>
</svg>
